<svg width="661" height="190" viewBox="0 0 661 190" fill="none" xmlns="http://www.w3.org/2000/svg">
<path d="M279.773 40.092L282.278 56.7884H281.443C279.523 46.7705 271.592 39.8415 262.075 39.8415C249.052 39.8415 239.953 52.9482 239.953 71.7316C239.953 90.348 248.969 102.369 262.993 102.369C273.596 102.369 281.026 95.5239 282.695 84.1704H283.53L281.109 102.202C273.011 102.202 269.422 103.705 262.075 103.705C240.286 103.705 225.761 90.682 225.761 71.1472C225.761 51.4455 240.37 38.7563 262.993 38.7563C270.256 38.7563 271.509 40.092 279.773 40.092ZM312.18 94.6056L312.263 77.6588L308.924 78.911C300.159 82.2503 298.405 85.5061 298.405 90.348C298.405 95.1065 301.077 98.5293 304.75 98.5293C307.171 98.5293 309.342 97.3605 312.18 94.6056ZM308.256 58.8754C317.857 58.8754 324.285 64.7191 324.285 73.6517V93.7708C324.201 96.8596 325.454 98.6127 327.541 98.6127C328.876 98.6127 330.045 97.9449 331.297 96.5257L331.965 97.1101C329.127 101.034 324.619 103.705 320.695 103.705C316.437 103.705 313.098 100.533 312.347 95.7744C306.837 101.618 303.247 103.705 298.489 103.705C291.727 103.705 287.219 99.698 287.219 93.6873C287.219 88.6784 289.807 84.7548 304.5 79.4119L312.263 76.5735V70.3124C312.263 63.9678 310.093 59.9607 306.587 59.9607C302.413 60.0441 299.24 65.8879 298.238 75.4883L289.222 70.3124C292.144 63.4669 299.825 58.8754 308.256 58.8754ZM383.892 101.702H383.976V102.536H358.514V101.702H358.597C362.604 101.702 365.276 99.0301 365.276 95.023V71.4812C365.276 65.9714 362.855 62.2982 359.348 62.2982C355.926 62.2982 351.835 65.5539 349.08 70.4794V95.023C349.08 99.0301 351.752 101.702 355.759 101.702H355.842V102.536H330.297V101.702H330.38C334.387 101.702 337.059 99.0301 337.059 95.023V67.641C336.975 63.6339 335.974 60.9624 330.297 60.9624V60.1276H338.561C344.405 60.1276 346.826 58.8754 347.995 56.9553H348.83L348.913 68.6428C351.835 62.8825 358.263 58.9589 364.858 58.9589C372.288 58.9589 377.214 64.3017 377.214 72.316V95.023C377.214 99.0301 379.885 101.702 383.892 101.702ZM400.92 60.1276C396.663 60.1276 393.991 62.4651 393.991 66.4722C393.991 69.4776 395.578 71.7316 401.087 74.6535L403.592 75.9057C411.356 79.9128 414.778 83.753 414.778 90.515C414.778 99.0301 409.436 103.622 399.084 103.705C393.741 103.705 394.826 102.536 386.395 102.536L384.391 86.8418H385.476C387.146 97.8614 393.24 102.62 398.499 102.62C404.093 102.62 407.182 100.115 407.182 96.1083C407.182 92.3516 404.427 90.348 396.579 86.007L394.158 84.6713C388.064 81.2485 385.142 76.4066 385.142 71.1472C385.142 63.5504 391.237 58.8754 400.336 58.9589C404.844 58.9589 405.095 60.1276 411.773 60.1276L412.942 73.5682H411.94C410.855 65.7209 405.762 60.1276 400.92 60.1276ZM432.645 70.062V91.0159C433.062 97.8614 436.068 102.286 440.576 102.286C446.419 102.286 449.508 94.7726 449.508 80.5807C449.508 68.1419 447.171 62.2147 442.245 62.2147C438.405 62.2147 434.147 65.8044 432.645 70.062ZM421.458 103.705H420.623V47.4384C420.623 43.4313 417.869 40.7599 413.861 40.7599V39.925H422.377C428.638 39.925 430.725 38.5893 431.81 36.7527H432.645V67.1401C435.233 62.1312 440.158 58.8754 445.668 58.8754C455.268 58.8754 462.698 68.3088 462.698 81.165C462.698 94.7726 454.684 103.705 442.997 103.705C436.401 103.705 431.893 100.867 429.639 95.4404L421.458 103.705ZM489.297 101.702H489.38V102.536H463.835V101.702H463.919C467.926 101.702 470.597 99.0301 470.597 95.023V67.641C470.514 63.6339 469.512 60.9624 463.835 60.9624V60.1276H472.1C477.943 60.1276 480.782 58.8754 481.951 56.9553H482.368L482.451 70.6463C484.539 65.7209 488.462 58.8754 495.892 58.8754C497.562 58.8754 499.482 59.2093 501.569 60.0441L498.313 69.8115C494.306 67.641 491.384 66.8062 489.213 66.8062C485.373 66.8062 483.954 69.5611 482.618 72.7334V95.023C482.618 99.0301 485.29 101.702 489.297 101.702ZM507.172 44.3496C507.172 40.3424 510.094 37.4206 514.101 37.4206C518.025 37.4206 520.947 40.4259 520.947 44.3496C520.947 48.1897 518.025 51.2786 514.101 51.2786C510.094 51.2786 507.172 48.3567 507.172 44.3496ZM527.208 101.702H527.292V102.536H501.746V101.702H501.83C505.837 101.702 508.508 99.0301 508.508 95.023V67.641C508.425 63.6339 507.423 60.9624 501.746 60.9624V60.1276H510.261C516.105 60.1276 518.526 58.8754 519.695 56.9553H520.53V95.023C520.53 99.0301 523.201 101.702 527.208 101.702ZM557.865 91.7672V71.3977C557.364 64.7191 554.442 60.3781 550.101 60.3781C544.257 60.3781 541.002 68.0584 541.002 82.1668C541.002 94.3552 543.339 100.449 548.097 100.449C551.938 100.449 556.195 96.4422 557.865 91.7672ZM569.886 36.7527V95.023C569.886 99.0301 572.558 101.702 576.648 101.702V102.536H568.133C563.291 102.536 560.536 103.538 559.034 105.709H558.199L558.115 93.8543C555.527 99.6145 549.517 103.789 543.506 103.789C534.573 103.789 527.644 94.5221 527.644 81.9164C527.644 67.9749 535.993 58.9589 548.348 58.9589C552.856 58.9589 555.527 60.2111 557.865 63.5504V47.4384C557.865 43.4313 555.11 40.7599 551.103 40.7599V39.925H559.618C565.796 39.925 567.883 38.5893 569.051 36.7527H569.886ZM590.555 74.236C590.555 83.0851 592.726 88.5949 596.148 88.5949C599.655 88.5949 601.909 83.0016 601.909 74.236C601.909 65.4705 599.655 60.0441 596.232 60.0441C592.726 60.0441 590.555 65.4705 590.555 74.236ZM599.07 105.124L596.148 104.957C592.976 104.874 590.305 104.623 588.051 104.123C585.713 104.874 584.628 107.462 584.628 110.634C584.628 116.394 589.219 120.151 597.15 120.151C605.081 120.151 611.426 116.311 611.426 111.302C611.426 107.378 607.585 105.375 599.07 105.124ZM578.534 74.236C578.534 65.0531 585.546 58.9589 596.232 58.9589C598.987 58.9589 601.491 59.3763 603.745 60.1276H619.106L618.271 61.6303H606.918C611.342 64.2182 613.847 68.6428 613.847 74.236C613.847 83.5025 606.834 89.5967 596.232 89.5967C593.31 89.5967 590.639 89.0958 588.301 88.261C586.548 89.1793 585.63 90.2646 585.63 91.6003C585.63 93.7708 588.218 94.5221 596.566 94.7726L599.488 94.9395C612.26 95.3569 619.523 100.032 619.523 107.712C619.523 116.227 610.758 121.236 596.232 121.236C584.294 121.236 576.447 117.814 576.447 112.638C576.447 108.798 580.454 105.542 586.882 103.872C581.706 102.536 579.035 100.199 579.035 96.7761C579.035 93.1029 582.124 89.7637 587.299 87.8436C581.79 85.4226 578.534 80.5807 578.534 74.236ZM629.978 74.9874H646.925C646.925 66.0548 643.753 60.1276 638.827 60.2111C633.985 60.2111 630.396 66.0548 629.978 74.9874ZM618.541 81.2485C618.541 67.9749 627.39 58.9589 639.745 58.9589C650.181 58.9589 657.527 65.4705 657.861 74.9874L657.945 76.2396H629.895V76.657C629.811 88.3445 635.571 96.1083 644.337 96.1083C649.596 96.1083 654.856 93.2699 657.861 88.8454L658.612 89.0958C655.774 97.8614 647.426 103.538 638.243 103.538C626.639 103.538 618.541 94.4386 618.541 81.2485Z" fill="#191919"/>
<path d="M245.788 121.746C243.453 121.746 241.921 123.239 241.921 125.536C241.921 127.526 243.07 129.134 246.285 131.546L247.931 132.771C253.023 136.599 254.707 138.972 254.707 142.264C254.707 147.394 250.649 150.878 244.677 150.954C242.304 150.954 241.768 150.418 237.902 150.418L236.562 140.465H237.021C237.787 146.705 240.658 150.265 244.907 150.265C248.046 150.265 250.266 148.275 250.266 145.442C250.266 143.03 248.697 141.078 243.682 137.25L242.113 136.063C238.361 133.192 237.021 131.163 237.021 128.407C237.021 123.966 240.505 121.172 246.017 121.172C248.429 121.172 249.233 121.708 252.334 121.708L252.716 129.441H252.334C251.606 124.732 249.08 121.746 245.788 121.746ZM292.864 121.784L294.012 129.441H293.629C292.749 124.847 289.112 121.67 284.748 121.67C278.776 121.67 274.604 127.68 274.604 136.293C274.604 144.829 278.738 150.342 285.169 150.342C290.031 150.342 293.438 147.203 294.203 141.997H294.586L293.476 150.265C289.763 150.265 288.117 150.954 284.748 150.954C274.757 150.954 268.096 144.982 268.096 136.025C268.096 126.991 274.795 121.172 285.169 121.172C288.5 121.172 289.074 121.784 292.864 121.784ZM315.686 134.034H328.318V125.153C328.318 123.316 327.094 122.091 325.256 122.091H325.141V121.708H337.391V122.091H337.276C335.439 122.091 334.214 123.316 334.214 125.153V146.973C334.214 148.81 335.439 150.035 337.276 150.035H337.391V150.418H325.141V150.035H325.256C327.094 150.035 328.318 148.81 328.318 146.973V134.57H315.686V146.973C315.686 148.81 316.911 150.035 318.748 150.035H318.825V150.418H306.575V150.035H306.728C308.566 150.035 309.791 148.81 309.791 146.973V125.153C309.791 123.316 308.566 122.091 306.728 122.091H306.575V121.708H318.825V122.091H318.748C316.911 122.091 315.686 123.316 315.686 125.153V134.034ZM349.382 136.063C349.382 127.144 355.545 121.172 364.771 121.172C373.997 121.172 380.16 127.144 380.16 136.063C380.16 144.982 373.997 150.954 364.771 150.954C355.545 150.954 349.382 144.982 349.382 136.063ZM355.89 136.025C355.89 144.638 359.45 150.342 364.771 150.342C370.092 150.342 373.652 144.638 373.652 136.025C373.652 127.412 370.092 121.67 364.771 121.67C359.45 121.67 355.89 127.412 355.89 136.025ZM403.836 149.921H404.64C409.157 149.921 412.526 146.935 413.33 141.882H413.712L412.564 150.418H392.16V150.035H392.199C394.036 150.035 395.261 149.04 395.261 147.203V125.153C395.261 123.316 394.036 122.091 392.199 122.091H392.16V121.708H404.372V122.091H404.219C402.381 122.091 401.156 123.316 401.156 125.153V147.356C401.156 148.964 401.845 149.921 403.836 149.921ZM440.29 139.853L435.926 128.828L431.447 139.853H440.29ZM428.461 145.863L438.567 121.134H438.912L448.865 145.863C449.975 148.581 451.277 150.035 452.616 150.035H452.731V150.418H440.481V150.035H440.635C442.931 150.035 443.774 148.542 442.778 146.054L440.481 140.35H431.256L429.112 145.671C428.193 147.892 429.533 149.921 432.06 150.035V150.418H424.595V150.035C426.011 149.921 427.619 147.892 428.461 145.863ZM471.862 122.206V135.986H473.814C477.068 135.986 479.25 133.23 479.25 129.096C479.25 124.962 477.183 122.206 474.082 122.206H471.862ZM474.925 150.035H475.001V150.418H462.904V150.035C464.742 150.035 465.967 148.81 465.967 146.973V125.153C465.967 123.316 464.742 122.091 462.904 122.091V121.708H475.69C481.164 121.708 484.801 124.655 484.801 129.134C484.801 132.962 482.198 135.872 478.408 136.331C479.289 136.561 480.59 137.977 481.7 139.853L486.524 148.121C487.213 149.308 488.246 150.035 489.471 150.035V150.418H481.547C480.82 149.27 479.939 147.777 479.327 146.59L475.575 139.7C474.121 136.982 473.623 136.484 472.245 136.484H471.862V146.973C471.862 148.81 473.087 150.035 474.925 150.035ZM510.102 121.746C507.767 121.746 506.236 123.239 506.236 125.536C506.236 127.526 507.384 129.134 510.6 131.546L512.246 132.771C517.337 136.599 519.022 138.972 519.022 142.264C519.022 147.394 514.964 150.878 508.992 150.954C506.619 150.954 506.083 150.418 502.216 150.418L500.877 140.465H501.336C502.102 146.705 504.973 150.265 509.222 150.265C512.361 150.265 514.581 148.275 514.581 145.442C514.581 143.03 513.012 141.078 507.997 137.25L506.427 136.063C502.676 133.192 501.336 131.163 501.336 128.407C501.336 123.966 504.819 121.172 510.332 121.172C512.744 121.172 513.547 121.708 516.648 121.708L517.031 129.441H516.648C515.921 124.732 513.394 121.746 510.102 121.746ZM532.264 147.7C532.264 145.901 533.757 144.446 535.518 144.446C537.279 144.446 538.772 145.901 538.772 147.7C538.772 149.461 537.279 150.954 535.518 150.954C533.757 150.954 532.264 149.461 532.264 147.7Z" fill="#191919"/>
<g clip-path="url(#clip0_745_60)">
<path d="M183.575 127.189C183.096 128.48 182.58 129.733 182.065 130.987C177.312 142.566 170.275 152.965 161.544 161.705C152.849 170.445 142.423 177.488 130.855 182.282C128.128 183.425 125.328 184.421 122.491 185.306C113.686 187.998 104.328 189.473 94.639 189.473C84.9495 189.473 75.5549 187.998 66.7497 185.306C63.9128 184.421 61.1129 183.425 58.3866 182.282C46.8182 177.488 36.392 170.445 27.6973 161.705C19.0026 152.965 11.9658 142.566 7.17635 130.987C6.03425 128.258 5.03952 125.456 4.15532 122.616C1.42902 113.803 -0.0078125 104.436 -0.0078125 94.7377C-0.0078125 85.0392 1.42902 75.6727 4.15532 66.8223C5.03952 63.9829 6.03425 61.2171 7.17635 58.4883C11.9658 46.9091 19.0026 36.4362 27.6973 27.7334C36.392 19.0306 46.8182 11.9872 58.3866 7.19332C61.1129 6.05016 63.9128 5.0545 66.7497 4.16947C75.5549 1.47749 84.9495 0.00244141 94.639 0.00244141C104.328 0.00244141 113.686 1.47749 122.491 4.16947C125.328 5.0545 128.128 6.05016 130.855 7.19332C142.423 11.9872 152.849 19.0306 161.544 27.7334C170.275 36.4362 177.312 46.8722 182.065 58.4514C182.58 59.6683 183.059 60.9221 183.538 62.1759C181.88 66.7855 179.486 71.1369 176.428 75.0089C175.986 75.4883 175.654 75.9677 175.249 76.4102C174.623 77.1108 173.959 77.8115 173.259 78.5121C173.149 78.6228 173.038 78.7703 172.928 78.8809C172.338 79.434 171.823 79.9503 171.196 80.4666C170.681 80.9828 170.054 81.4991 169.465 81.9416C165.191 85.3711 160.291 87.9156 155.096 89.6119C146.733 92.3039 137.597 92.3039 129.197 89.6857C123.818 88.0262 118.77 85.408 114.349 81.8679C113.87 81.4622 113.391 81.0935 112.949 80.6878C112.249 80.0609 111.549 79.3972 110.849 78.7334C110.739 78.6228 110.591 78.4753 110.481 78.3646C109.928 77.8115 109.413 77.2583 108.897 76.6683C108.418 76.1152 107.902 75.5252 107.423 74.9351C100.165 65.7529 96.8126 53.9525 97.5495 42.189V42.0414C97.5495 41.6727 97.5863 41.3408 97.6231 40.972C97.881 37.5057 98.2126 34.1499 98.6547 31.0154C98.8021 29.8723 98.9863 28.8028 99.1705 27.7334H90.0706C90.2916 28.8766 90.4758 30.0198 90.66 31.1261C90.8442 32.2692 90.9916 33.3755 91.139 34.5187C91.4337 36.805 91.6179 39.0913 91.7653 41.3408C92.539 53.4731 89.26 65.6423 81.7811 75.0089C81.3759 75.4883 81.0075 75.9677 80.6022 76.4102C79.9759 77.1108 79.3127 77.8115 78.6496 78.5121C78.5391 78.6228 78.3917 78.7703 78.2812 78.8809C77.7285 79.434 77.1759 79.9503 76.5864 80.4666C76.0338 80.9828 75.4443 81.4622 74.8549 81.9416C66.0497 88.9481 54.776 92.3408 43.4656 91.9351H43.3919C42.5445 91.8614 41.734 91.8245 40.9235 91.7507C39.7446 91.677 38.5656 91.5663 37.4235 91.4557C35.213 91.2713 33.0393 91.0132 30.9762 90.6813C29.8341 90.5338 28.7657 90.3494 27.6973 90.1651V99.2735C28.8394 99.0522 29.9815 98.8679 31.0867 98.6835L33.9604 98.2778C36.4288 97.9828 38.8604 97.7616 41.2919 97.5772C53.2287 96.8028 65.2023 100.011 74.5233 107.276C75.0759 107.718 75.6285 108.161 76.1812 108.64C76.2549 108.714 76.2917 108.751 76.3654 108.788C77.0654 109.414 77.7285 110.041 78.3917 110.705L78.7601 111.074C79.3127 111.627 79.8285 112.18 80.3443 112.77C80.8601 113.323 81.339 113.913 81.818 114.503C88.8179 123.317 92.1705 134.564 91.8021 145.922C91.7284 146.991 91.6548 147.987 91.5811 148.983C91.5074 149.978 91.4337 150.974 91.3232 151.97C91.139 154.182 90.8811 156.358 90.5495 158.423C90.4021 159.566 90.2179 160.636 90.0337 161.705H99.1337C98.9126 160.562 98.7284 159.456 98.5442 158.312C98.36 157.169 98.2126 156.026 98.0652 154.883C97.8074 152.634 97.5863 150.384 97.4389 148.098C96.6653 135.965 99.981 123.796 107.46 114.43C107.939 113.84 108.381 113.287 108.86 112.733C109.449 112.106 110.002 111.516 110.591 110.926C110.739 110.779 110.886 110.668 111.034 110.521C111.586 109.968 112.139 109.451 112.691 108.972C113.244 108.456 113.834 107.976 114.423 107.497C119.618 103.33 125.697 100.454 132.144 98.8679C138.591 97.2822 145.149 97.3559 151.486 98.8679C157.823 100.38 163.939 103.182 169.133 107.239C169.686 107.681 170.202 108.124 170.791 108.603C170.865 108.677 170.865 108.714 170.975 108.751C171.675 109.378 172.302 110.005 172.965 110.668L173.37 111.037C173.886 111.59 174.438 112.143 174.917 112.733C175.47 113.287 175.949 113.877 176.391 114.467C179.449 118.302 181.807 122.579 183.502 127.152L183.575 127.189Z" fill="#191919"/>
</g>
<defs>
<clipPath id="clip0_745_60">
<rect width="183.583" height="189.471" fill="white" transform="translate(-0.00390625)"/>
</clipPath>
</defs>
</svg>
